<svg width="24" height="24" viewBox="0 0 24 24" fill="none" xmlns="http://www.w3.org/2000/svg">
<path fill-rule="evenodd" clip-rule="evenodd" d="M15.2062 17.9701C14.4617 17.2482 14.4409 16.0601 15.1598 15.3127V15.3127C15.8828 14.561 17.0791 14.5402 17.8278 15.2661L21.4326 18.7612C22.1771 19.483 22.1979 20.6711 21.479 21.4185V21.4185C20.756 22.1702 19.5597 22.1911 18.811 21.4651L15.2062 17.9701ZM9.7256 14.5789C12.3779 14.5789 14.528 12.4201 14.528 9.75702C14.528 7.09394 12.3779 4.93509 9.7256 4.93509C7.07331 4.93509 4.9232 7.09394 4.9232 9.75702C4.9232 12.4201 7.07331 14.5789 9.7256 14.5789ZM9.7256 17.514C5.45887 17.514 2 14.0411 2 9.75702C2 5.47294 5.45887 2 9.7256 2C13.9923 2 17.4512 5.47294 17.4512 9.75702C17.4512 14.0411 13.9923 17.514 9.7256 17.514Z" fill="#9B9B9B"/>
</svg>
